<svg width="88" height="111" viewBox="0 0 88 111" fill="none" xmlns="http://www.w3.org/2000/svg">
<path d="M43.8705 72.0273C45.9702 72.0273 47.728 70.2695 47.728 68.2188V18.0723L47.435 10.748L50.7065 14.2148L58.1284 22.125C58.812 22.9062 59.8373 23.2969 60.7651 23.2969C62.767 23.2969 64.3295 21.832 64.3295 19.8301C64.3295 18.8047 63.8901 18.0234 63.1577 17.291L46.6538 1.37299C45.6772 0.396486 44.8471 0.0546875 43.8705 0.0546875C42.8452 0.0546875 42.0151 0.396486 41.0385 1.37299L24.5346 17.291C23.8022 18.0234 23.3627 18.8047 23.3627 19.8301C23.3627 21.832 24.8276 23.2969 26.8784 23.2969C27.8061 23.2969 28.8803 22.9062 29.5639 22.125L36.9858 14.2148L40.2573 10.748L39.9643 18.0723V68.2188C39.9643 70.2695 41.7709 72.0273 43.8705 72.0273ZM15.8432 110.26H71.8491C82.0541 110.26 87.1811 105.182 87.1811 95.123V46.3926C87.1811 36.334 82.0541 31.2559 71.8491 31.2559H58.226V39.1172H71.7026C76.5366 39.1172 79.3198 41.7539 79.3198 46.832V94.6836C79.3198 99.7617 76.5366 102.398 71.7026 102.398H15.9409C11.058 102.398 8.37253 99.7617 8.37253 94.6836V46.832C8.37253 41.7539 11.058 39.1172 15.9409 39.1172H29.4662V31.2559H15.8432C5.63813 31.2559 0.51123 36.334 0.51123 46.3926V95.123C0.51123 105.182 5.63813 110.26 15.8432 110.26Z" fill="black"/>
</svg>
